<?xml version="1.0" encoding="UTF-8" standalone="no"?>
<!DOCTYPE svg PUBLIC "-//W3C//DTD SVG 1.1//EN" "http://www.w3.org/Graphics/SVG/1.1/DTD/svg11.dtd">
<svg width="512" height="512" viewBox="0 0 897 897" version="1.1" xmlns="http://www.w3.org/2000/svg" xmlns:xlink="http://www.w3.org/1999/xlink" xml:space="preserve" xmlns:serif="http://www.serif.com/" style="fill-rule:evenodd;clip-rule:evenodd;stroke-linejoin:round;stroke-miterlimit:2;">
    <g transform="matrix(1,0,0,1,-16.1624,-9.99977)">
        <path d="M441.586,631.042C406.648,665.98 371.711,700.917 336.773,735.855C327.679,744.949 318.586,754.043 309.492,763.136C303.273,769.355 297.191,775.634 290.234,781.061C294.327,777.877 298.42,774.693 302.513,771.509C294.952,777.251 286.808,782.011 278.09,785.772C283.041,783.706 287.992,781.64 292.943,779.574C283.526,783.497 273.734,786.143 263.625,787.511C268.946,786.825 274.266,786.139 279.587,785.453C269.533,786.687 259.459,786.626 249.421,785.267C254.558,785.978 259.694,786.689 264.831,787.4C255.198,785.976 245.868,783.392 236.878,779.648C241.597,781.621 246.316,783.594 251.036,785.567C242.318,781.806 234.175,777.046 226.614,771.304C230.682,774.404 234.751,777.504 238.819,780.605C231.567,774.949 225.236,768.355 218.751,761.869C209.119,752.237 199.486,742.604 189.854,732.973C180.146,723.265 170.439,713.558 160.732,703.851C154.088,697.207 147.308,690.729 141.515,683.301C144.699,687.395 147.883,691.488 151.067,695.58C145.325,688.018 140.565,679.875 136.804,671.157C138.87,676.108 140.936,681.058 143.002,686.01C139.08,676.593 136.433,666.801 135.065,656.692C135.751,662.013 136.437,667.334 137.123,672.654C135.888,662.6 135.95,652.526 137.308,642.488C136.597,647.625 135.886,652.761 135.175,657.898C136.598,648.264 139.183,638.934 142.927,629.945C140.954,634.664 138.981,639.383 137.008,644.102C140.768,635.384 145.529,627.241 151.271,619.68C148.171,623.748 145.07,627.817 141.97,631.885C153.75,616.781 168.796,603.726 182.295,590.227L291.988,480.534C315.078,457.444 314.704,418.549 291.533,395.669C268.191,372.619 229.803,372.989 206.668,396.124C171.73,431.062 136.793,465.999 101.855,500.937C89.312,513.48 76.531,525.828 64.233,538.613C52.903,550.392 42.653,564.279 35.4,579.003C28.282,593.453 22.176,608.871 19.614,624.853C18.004,634.895 16.438,645.122 16.189,655.329C15.923,666.19 17.704,677.044 19.153,687.753C21.394,704.317 27.615,719.257 34.413,734.485C47.872,764.636 74.74,787.592 97.722,810.575C108.741,821.594 119.76,832.613 130.779,843.632C137.739,850.592 144.527,857.874 152.137,864.134C160.077,870.663 168.424,877.108 177.25,882.48C186.438,888.072 196.6,891.834 206.483,895.951C221.505,902.208 237.963,904.362 254.025,905.936C270.199,907.522 287.049,905.199 302.839,902.066C318.865,898.886 334.692,892.106 348.959,884.39C372.635,871.586 391.014,851.351 409.81,832.554L526.907,715.457C549.997,692.367 549.623,653.473 526.452,630.592C503.11,607.537 464.721,607.907 441.586,631.042Z" style="fill-rule:nonzero;"/>
    </g>
    <g transform="matrix(1,0,0,1,-16.1624,-9.99977)">
        <path d="M487.115,285.404C522.053,250.466 556.99,215.529 591.928,180.591C601.022,171.497 610.116,162.404 619.209,153.31C625.428,147.091 631.509,140.811 638.467,135.385C634.374,138.569 630.28,141.753 626.188,144.937C633.75,139.195 641.893,134.435 650.611,130.674C645.661,132.74 640.71,134.806 635.758,136.872C645.176,132.95 654.967,130.303 665.076,128.935C659.756,129.621 654.435,130.307 649.114,130.993C659.169,129.758 669.242,129.82 679.28,131.178C674.143,130.467 669.007,129.756 663.87,129.045C673.504,130.468 682.834,133.053 691.823,136.797C687.104,134.824 682.385,132.851 677.666,130.878C686.384,134.638 694.527,139.399 702.088,145.141C698.02,142.041 693.951,138.94 689.883,135.84C697.135,141.496 703.466,148.09 709.951,154.576C719.584,164.209 729.217,173.841 738.848,183.474C748.556,193.181 758.263,202.889 767.97,212.596C774.614,219.24 781.394,225.718 787.187,233.145C784.003,229.052 780.819,224.959 777.635,220.866C783.377,228.427 788.138,236.57 791.898,245.288C789.833,240.337 787.766,235.387 785.7,230.436C789.623,239.853 792.269,249.645 793.638,259.754C792.951,254.434 792.266,249.113 791.579,243.793C792.814,253.847 792.753,263.92 791.395,273.959C792.106,268.822 792.817,263.686 793.528,258.549C792.104,268.183 789.52,277.512 785.775,286.503C787.748,281.784 789.721,277.065 791.694,272.345C787.933,281.063 783.173,289.206 777.431,296.768C780.532,292.7 783.631,288.631 786.732,284.563C774.953,299.666 759.906,312.721 746.407,326.221C723.825,348.803 701.243,371.385 678.662,393.967C664.68,407.949 650.697,421.932 636.715,435.914C613.625,459.004 613.999,497.898 637.17,520.779C660.512,543.829 698.9,543.46 722.035,520.324C756.973,485.386 791.91,450.449 826.847,415.511C839.39,402.968 852.171,390.62 864.469,377.835C875.799,366.055 886.049,352.169 893.302,337.445C900.42,322.995 906.526,307.577 909.088,291.595C910.698,281.553 912.264,271.326 912.513,261.119C912.779,250.258 910.997,239.404 909.549,228.695C907.308,212.13 901.086,197.191 894.289,181.963C880.83,151.812 853.962,128.855 830.979,105.873C819.96,94.854 808.941,83.835 797.922,72.816C790.962,65.856 784.175,58.573 776.564,52.314C768.624,45.784 760.277,39.34 751.452,33.968C742.264,28.376 732.102,24.614 722.219,20.498C707.198,14.241 690.739,12.087 674.678,10.512C658.503,8.926 641.655,11.249 625.864,14.382C609.838,17.562 594.011,24.342 579.745,32.058C556.068,44.863 537.69,65.098 518.893,83.894C480.525,122.262 442.156,160.63 403.788,198.998C403.124,199.663 402.459,200.327 401.795,200.991C378.705,224.081 379.079,262.976 402.25,285.856C425.591,308.909 463.979,308.54 487.115,285.404Z" style="fill-rule:nonzero;"/>
    </g>
    <g transform="matrix(1,0,0,1,-16.1624,-9.99977)">
        <path d="M399.211,606.113C426.411,579.149 453.61,552.185 480.809,525.221C524.499,481.909 568.189,438.598 611.878,395.287C622.367,384.889 632.856,374.491 643.345,364.093C666.536,341.103 665.984,302.032 642.89,279.228C619.473,256.104 581.259,256.649 558.025,279.683C530.826,306.647 503.626,333.611 476.426,360.575C432.737,403.887 389.047,447.198 345.357,490.509C334.868,500.907 324.379,511.305 313.89,521.703C290.699,544.693 291.251,583.764 314.345,606.568C337.763,629.692 375.976,629.146 399.211,606.113Z" style="fill-rule:nonzero;"/>
    </g>
</svg>
